<svg xmlns="http://www.w3.org/2000/svg" viewBox="0 0 100 100" width="100" height="100">
  <rect width="100" height="100" fill="#e8f5e9" rx="10" ry="10"/>
  <g fill="#4caf50">
    <path d="M50 20 C30 20 25 35 25 50 C25 65 35 80 50 80 C65 80 75 65 75 50 C75 35 70 20 50 20 Z" />
  </g>
  <g fill="#81c784">
    <circle cx="40" cy="40" r="5"/>
    <circle cx="60" cy="40" r="5"/>
    <circle cx="50" cy="60" r="5"/>
  </g>
  <path d="M50 20 C30 20 25 35 25 50 C25 65 35 80 50 80 C65 80 75 65 75 50 C75 35 70 20 50 20 Z" stroke="#2e7d32" stroke-width="2" fill="none"/>
</svg>